<svg width="25" height="25" viewBox="0 0 25 25" fill="none" xmlns="http://www.w3.org/2000/svg">
<path fill-rule="evenodd" clip-rule="evenodd" d="M11.0069 2.12621C10.8872 1.63129 10.6349 1.17838 10.2769 0.816214C9.92558 0.462747 9.48769 0.207595 9.00693 0.0762141C8.62727 0.0112402 8.24167 -0.0122313 7.85693 0.00621411H3.23693C2.86507 -0.0107976 2.49251 0.0160541 2.12693 0.0862141C1.63029 0.201476 1.17624 0.454498 0.816932 0.816214C0.45618 1.17781 0.20041 1.63059 0.0769325 2.12621C0.0155272 2.49283 -0.00793007 2.86479 0.00693245 3.23621V7.85621C-0.0141004 8.24138 0.0127718 8.62767 0.0869325 9.00621C0.199921 9.50663 0.453137 9.9645 0.816932 10.3262C1.18492 10.666 1.63731 10.9008 2.12693 11.0062C2.49251 11.0764 2.86507 11.1032 3.23693 11.0862H7.85693C8.2421 11.1072 8.62839 11.0804 9.00693 11.0062C9.5058 10.8892 9.96262 10.6365 10.3269 10.2762C10.6594 9.91863 10.8936 9.48112 11.0069 9.00621C11.077 8.64401 11.1039 8.27475 11.0869 7.90621V3.23621C11.1039 2.86436 11.0771 2.49179 11.0069 2.12621ZM9.23693 7.75621C9.26214 8.01226 9.26214 8.27017 9.23693 8.52621C9.20982 8.70556 9.12972 8.87271 9.00693 9.00621C8.88652 9.12904 8.73409 9.21565 8.56693 9.25621C8.31049 9.27125 8.05338 9.27125 7.79693 9.25621H3.32693C3.07088 9.28142 2.81298 9.28142 2.55693 9.25621C2.39336 9.21394 2.24459 9.12745 2.12693 9.00621C2.00086 8.88833 1.91366 8.73486 1.87693 8.56621C1.85537 8.31 1.85537 8.05243 1.87693 7.79621V3.32621C1.85578 3.06998 1.85578 2.81245 1.87693 2.55621C1.92116 2.39054 2.00725 2.23902 2.12693 2.11621C2.24579 1.99863 2.39445 1.91565 2.55693 1.87621C2.81318 1.85551 3.07068 1.85551 3.32693 1.87621H7.75693C8.01316 1.85506 8.2707 1.85506 8.52693 1.87621C8.70838 1.90954 8.87562 1.99664 9.00693 2.12621C9.12736 2.2445 9.21372 2.39303 9.25693 2.55621C9.27163 2.81267 9.27163 3.06976 9.25693 3.32621L9.23693 7.75621Z" fill="#B3B3B3"/>
<path fill-rule="evenodd" clip-rule="evenodd" d="M23.927 2.12627C23.812 1.63477 23.565 1.18403 23.2125 0.822732C22.86 0.461435 22.4155 0.203319 21.927 0.0762699C21.5472 0.0124446 21.1617 -0.0110194 20.777 0.00626985H16.157C15.7718 -0.0134561 15.3857 0.013405 15.007 0.0862698C14.5103 0.201531 14.0563 0.454554 13.697 0.81627C13.3536 1.18311 13.1153 1.6356 13.007 2.12627C12.9368 2.49184 12.91 2.86441 12.927 3.23627V7.85627C12.9059 8.24144 12.9328 8.62772 13.007 9.00627C13.1259 9.49049 13.3752 9.9329 13.7278 10.2855C14.0803 10.6381 14.5228 10.8873 15.007 11.0063C15.3726 11.076 15.7451 11.1028 16.117 11.0863H20.737C21.1221 11.106 21.5083 11.0791 21.887 11.0063C22.3819 10.8866 22.8348 10.6342 23.197 10.2763C23.5476 9.92434 23.7993 9.48633 23.927 9.00627C24.0011 8.62772 24.028 8.24144 24.007 7.85627V3.23627C24.024 2.86441 23.9971 2.49184 23.927 2.12627ZM22.157 7.75627C22.1717 8.01273 22.1717 8.26981 22.157 8.52627C22.1105 8.69064 22.0226 8.84036 21.9019 8.96114C21.7811 9.08193 21.6313 9.16977 21.467 9.21627C21.2139 9.23118 20.9601 9.23118 20.707 9.21627H16.247C15.9943 9.2418 15.7397 9.2418 15.487 9.21627C15.3098 9.19484 15.1429 9.12181 15.007 9.00627C14.8842 8.88586 14.7975 8.73342 14.757 8.56627C14.7419 8.30982 14.7419 8.05272 14.757 7.79627V3.32627C14.7358 3.07004 14.7358 2.8125 14.757 2.55627C14.8012 2.39059 14.8873 2.23908 15.007 2.11627C15.1283 1.99666 15.2807 1.91351 15.447 1.87627C15.6999 1.85484 15.9541 1.85484 16.207 1.87627H20.647C20.9032 1.85556 21.1607 1.85556 21.417 1.87627C21.5783 1.92333 21.7252 2.01031 21.8441 2.12916C21.9629 2.24802 22.0499 2.39491 22.097 2.55627C22.1181 2.8125 22.1181 3.07004 22.097 3.32627L22.157 7.75627Z" fill="#CDCCCC"/>
<path fill-rule="evenodd" clip-rule="evenodd" d="M11.0069 15.0062C10.8879 14.522 10.6387 14.0796 10.2861 13.727C9.93351 13.3744 9.49111 13.1252 9.00688 13.0062C8.64467 12.9361 8.27542 12.9092 7.90688 12.9262H3.23688C2.86502 12.9092 2.49246 12.9361 2.12688 13.0062C1.63196 13.1259 1.17905 13.3783 0.81688 13.7362C0.461578 14.0845 0.209017 14.5239 0.0868802 15.0062C0.0140154 15.3849 -0.0128458 15.7711 0.0068802 16.1562V20.7762C-0.00763014 21.1476 0.0158249 21.5196 0.0768802 21.8862C0.203929 22.3747 0.462045 22.8192 0.823342 23.1717C1.18464 23.5242 1.63538 23.7713 2.12688 23.8862C2.49086 23.9698 2.86345 24.0101 3.23688 24.0062H7.85688C8.24205 24.0273 8.62833 24.0004 9.00688 23.9262C9.50482 23.8068 9.96103 23.5545 10.3269 23.1962C10.6666 22.8282 10.9015 22.3758 11.0069 21.8862C11.0766 21.5206 11.1034 21.1481 11.0869 20.7762V16.1562C11.1066 15.7711 11.0797 15.3849 11.0069 15.0062ZM9.23688 20.6862C9.25179 20.9393 9.25179 21.1931 9.23688 21.4462C9.19038 21.6106 9.10254 21.7603 8.98176 21.8811C8.86097 22.0019 8.71125 22.0897 8.54688 22.1362C8.29042 22.1509 8.03334 22.1509 7.77688 22.1362H3.32688C3.07065 22.1574 2.81311 22.1574 2.55688 22.1362C2.39552 22.0892 2.24863 22.0022 2.12977 21.8833C2.01092 21.7645 1.92394 21.6176 1.87688 21.4562C1.85617 21.2 1.85617 20.9425 1.87688 20.6862V16.2462C1.85501 15.9934 1.85501 15.7391 1.87688 15.4862C1.90569 15.3033 1.99348 15.1347 2.12688 15.0062C2.24517 14.8858 2.3937 14.7994 2.55688 14.7562C2.81311 14.7351 3.07065 14.7351 3.32688 14.7562H7.75688C8.01333 14.7412 8.27043 14.7412 8.52688 14.7562C8.70833 14.7895 8.87556 14.8766 9.00688 15.0062C9.12649 15.1275 9.20964 15.28 9.24688 15.4462C9.27241 15.6989 9.27241 15.9535 9.24688 16.2062L9.23688 20.6862Z" fill="#B3B3B3"/>
<path fill-rule="evenodd" clip-rule="evenodd" d="M23.9269 15.0063C23.807 14.5226 23.5574 14.0807 23.2049 13.7283C22.8525 13.3759 22.4107 13.1263 21.9269 13.0063C21.5613 12.9366 21.1888 12.9098 20.8169 12.9263H16.1569C15.7718 12.9066 15.3856 12.9334 15.0069 13.0063C14.5232 13.1263 14.0813 13.3759 13.7289 13.7283C13.3765 14.0807 13.1269 14.5226 13.0069 15.0063C12.9372 15.3719 12.9104 15.7445 12.9269 16.1163V20.7363C12.9072 21.1215 12.9341 21.5076 13.0069 21.8863C13.1269 22.3701 13.3765 22.8119 13.7289 23.1643C14.0813 23.5167 14.5232 23.7664 15.0069 23.8863C15.3726 23.956 15.7451 23.9829 16.1169 23.9663H20.7369C21.1088 23.9829 21.4813 23.956 21.8469 23.8863C22.3436 23.7711 22.7976 23.518 23.1569 23.1563C23.5148 22.7941 23.7672 22.3412 23.8869 21.8463C23.9674 21.4954 24.0077 21.1364 24.0069 20.7763V16.1563C24.0266 15.7712 23.9998 15.385 23.9269 15.0063ZM22.1569 20.6463C22.1713 20.9028 22.1713 21.1598 22.1569 21.4163C22.1137 21.5795 22.0274 21.728 21.9069 21.8463C21.7865 21.9691 21.6341 22.0557 21.4669 22.0963C21.214 22.1177 20.9598 22.1177 20.7069 22.0963H16.2469C15.9938 22.1112 15.74 22.1112 15.4869 22.0963C15.3226 22.0498 15.1728 21.962 15.052 21.8412C14.9313 21.7204 14.8434 21.5707 14.7969 21.4063C14.7817 21.1532 14.7817 20.8994 14.7969 20.6463V16.2463C14.7755 15.9934 14.7755 15.7392 14.7969 15.4863C14.8434 15.3219 14.9313 15.1722 15.052 15.0514C15.1728 14.9306 15.3226 14.8428 15.4869 14.7963C15.74 14.7814 15.9938 14.7814 16.2469 14.7963H20.6869C20.9432 14.7756 21.2007 14.7756 21.4569 14.7963C21.6201 14.8395 21.7686 14.9259 21.8869 15.0463C22.0097 15.1667 22.0964 15.3192 22.1369 15.4863C22.1584 15.7392 22.1584 15.9934 22.1369 16.2463L22.1569 20.6463Z" fill="#B3B3B3"/>
</svg>
