<svg width="23" height="25" viewBox="0 0 23 25" fill="none" xmlns="http://www.w3.org/2000/svg">
<path d="M11.5451 13.78C11.6956 13.7814 11.8449 13.7529 11.9844 13.6962C12.1239 13.6395 12.2507 13.5557 12.3576 13.4497C12.4646 13.3437 12.5494 13.2176 12.6073 13.0786C12.6653 12.9397 12.6951 12.7906 12.6951 12.64V1.15005C12.6934 0.845695 12.5711 0.554419 12.3551 0.340049C12.2493 0.232623 12.1232 0.147257 11.9841 0.0888949C11.8451 0.030533 11.6959 0.000334882 11.5451 4.92219e-05C11.394 -0.0013732 11.2443 0.0280473 11.105 0.0865097C10.9657 0.144972 10.8398 0.231246 10.7351 0.340049C10.6263 0.444825 10.54 0.570705 10.4815 0.709983C10.4231 0.849261 10.3936 0.999006 10.3951 1.15005V12.64C10.3951 12.7906 10.4249 12.9397 10.4828 13.0786C10.5407 13.2176 10.6256 13.3437 10.7325 13.4497C10.8394 13.5557 10.9663 13.6395 11.1057 13.6962C11.2452 13.7529 11.3945 13.7814 11.5451 13.78Z" fill="#B3B3B3"/>
<path d="M16.815 2.42003C16.5421 2.28269 16.2262 2.25756 15.935 2.35003C15.7911 2.39593 15.6578 2.46995 15.5428 2.56781C15.4278 2.66566 15.3334 2.78538 15.265 2.92003C15.1243 3.19163 15.0956 3.50752 15.185 3.80003C15.2816 4.08848 15.4858 4.32851 15.755 4.47003C16.8953 5.05545 17.9005 5.87294 18.7061 6.86998C19.5117 7.86701 20.0998 9.02154 20.4326 10.2594C20.7654 11.4972 20.8356 12.791 20.6386 14.0576C20.4417 15.3241 19.982 16.5355 19.289 17.6139C18.596 18.6922 17.6852 19.6136 16.6149 20.319C15.5446 21.0244 14.3386 21.498 13.0744 21.7096C11.8102 21.9211 10.5157 21.8658 9.27409 21.5473C8.0325 21.2288 6.87127 20.654 5.86501 19.86C4.65532 18.9093 3.70369 17.6701 3.09738 16.256C2.49107 14.8419 2.24949 13.2983 2.3948 11.7666C2.54011 10.2349 3.06765 8.76417 3.92905 7.48933C4.79044 6.21449 5.95813 5.17632 7.32501 4.47003C7.45997 4.4022 7.57921 4.30681 7.67501 4.19003C7.77104 4.07421 7.84555 3.94212 7.89501 3.80003C7.92438 3.65147 7.92438 3.49859 7.89501 3.35003C7.88114 3.20066 7.84049 3.055 7.77501 2.92003C7.70718 2.78507 7.61179 2.66583 7.49501 2.57003C7.37698 2.47178 7.24119 2.39709 7.09501 2.35003C6.95331 2.30343 6.80355 2.28642 6.65501 2.30003C6.50185 2.31052 6.35229 2.35131 6.21501 2.42003C3.92721 3.6023 2.10291 5.51886 1.03484 7.86214C-0.0332276 10.2054 -0.283136 12.8396 0.325218 15.3419C0.933573 17.8443 2.36492 20.0697 4.38957 21.6611C6.41422 23.2525 8.91479 24.1176 11.49 24.1176C14.0652 24.1176 16.5658 23.2525 18.5904 21.6611C20.6151 20.0697 22.0464 17.8443 22.6548 15.3419C23.2632 12.8396 23.0132 10.2054 21.9452 7.86214C20.8771 5.51886 19.0528 3.6023 16.765 2.42003H16.815Z" fill="#CDCCCC"/>
</svg>
